# Blender v2.92.0 OBJ File: ''
# www.blender.org
o carro
v 1.000000 0.005986 -0.217065
v 1.000000 0.005985 3.744571
v -1.000000 0.005986 -0.217066
v 1.000000 2.005986 -0.217064
v -1.000000 2.005986 -0.217065
v 0.999999 2.005985 3.744572
v -1.000000 0.005985 3.744570
v -1.000000 2.005985 3.744570
v 1.000000 0.005987 -4.149099
v 1.000000 0.005986 -0.187463
v -1.000000 0.005987 -4.149099
v 1.000000 0.910404 -4.149098
v -1.000000 0.922121 -4.149099
v -1.000000 2.005986 -0.187464
v 0.999999 2.005986 -0.187462
v -1.000000 0.005986 -0.187463
vn 0.0000 -1.0000 -0.0000
vn -0.0000 1.0000 0.0000
vn 1.0000 0.0000 0.0000
vn -0.0000 -0.0000 1.0000
vn -1.0000 0.0000 0.0000
vn 0.0000 0.0000 -1.0000
vn 0.0057 0.9645 -0.2639
vn 0.0000 0.9638 -0.2665
s off
f 1//1 2//1 3//1
f 4//2 5//2 6//2
f 1//3 4//3 2//3
f 2//4 6//4 7//4
f 7//5 8//5 3//5
f 4//6 1//6 5//6
f 2//1 7//1 3//1
f 5//2 8//2 6//2
f 4//3 6//3 2//3
f 6//4 8//4 7//4
f 8//5 5//5 3//5
f 1//6 3//6 5//6
f 9//1 10//1 11//1
f 12//7 13//7 14//7
f 9//3 12//3 15//3
f 10//4 15//4 16//4
f 16//5 14//5 11//5
f 12//6 9//6 13//6
f 10//1 16//1 11//1
f 15//8 12//8 14//8
f 10//3 9//3 15//3
f 15//4 14//4 16//4
f 14//5 13//5 11//5
f 9//6 11//6 13//6
