# Blender 4.2.1 LTS
# www.blender.org
mtllib fundo.mtl
o Cube
v -150.935562 -25.536491 -0.027020
v -150.935562 42.003395 -0.027020
v -150.935562 -25.536491 0.027020
v -150.935562 42.003395 0.027020
v 150.935562 -25.536491 -0.027020
v 150.935562 42.003395 -0.027020
v 150.935562 -25.536491 0.027020
v 150.935562 42.003395 0.027020
vn -1.0000 -0.0000 -0.0000
vn -0.0000 -0.0000 1.0000
vn 1.0000 -0.0000 -0.0000
vn -0.0000 -0.0000 -1.0000
vn -0.0000 -1.0000 -0.0000
vn -0.0000 1.0000 -0.0000
vt 0.250043 0.000087
vt 0.500000 0.000087
vt 0.500000 0.250043
vt 0.250043 0.250043
vt 0.500000 0.500000
vt 0.250043 0.500000
vt 0.500000 0.749957
vt 0.250043 0.749957
vt 0.500000 0.999913
vt 0.250043 0.999913
vt 0.000087 0.500000
vt 0.000087 0.749957
vt 0.749957 0.500000
vt 0.749957 0.749957
s 0
usemtl Material.001
f 1/1/1 3/4/1 4/3/1 2/2/1
f 3/4/2 7/6/2 8/5/2 4/3/2
f 7/6/3 5/8/3 6/7/3 8/5/3
f 5/8/4 1/10/4 2/9/4 6/7/4
f 3/11/5 1/12/5 5/8/5 7/6/5
f 8/5/6 6/7/6 2/14/6 4/13/6
