# Blender 4.2.1 LTS
# www.blender.org
o Cube
v -15.153108 -1.000000 1.000000
v -15.153108 1.000000 1.000000
v -15.153108 -1.000000 -1.000000
v -15.153108 1.000000 -1.000000
v 15.153108 -1.000000 1.000000
v 15.153108 1.000000 1.000000
v 15.153108 -1.000000 -1.000000
v 15.153108 1.000000 -1.000000
v -15.153108 -4.975333 1.000000
v -15.153108 -4.975333 -1.000000
v 15.153108 -4.975333 -1.000000
v 15.153108 -4.975333 1.000000
v -15.153108 -1.000000 -1.001577
v -15.153108 1.000000 -1.001577
v -15.153108 -1.000000 -3.001577
v -15.153108 1.000000 -3.001577
v 15.153108 -1.000000 -1.001577
v 15.153108 1.000000 -1.001577
v 15.153108 -1.000000 -3.001577
v 15.153108 1.000000 -3.001577
v -15.153108 -4.975333 -1.001577
v -15.153108 -4.975333 -3.001577
v 15.153108 -4.975333 -3.001577
v 15.153108 -4.975333 -1.001577
vn -1.0000 -0.0000 -0.0000
vn -0.0000 -0.0000 -1.0000
vn 1.0000 -0.0000 -0.0000
vn -0.0000 -0.0000 1.0000
vn -0.0000 1.0000 -0.0000
vn -0.0000 -1.0000 -0.0000
s 0
f 1//1 2//1 4//1 3//1
f 3//2 4//2 8//2 7//2
f 7//3 8//3 6//3 5//3
f 5//4 6//4 2//4 1//4
f 5//4 1//4 9//4 12//4
f 8//5 4//5 2//5 6//5
f 10//6 11//6 12//6 9//6
f 3//2 7//2 11//2 10//2
f 1//1 3//1 10//1 9//1
f 7//3 5//3 12//3 11//3
f 13//1 14//1 16//1 15//1
f 15//2 16//2 20//2 19//2
f 19//3 20//3 18//3 17//3
f 17//4 18//4 14//4 13//4
f 17//4 13//4 21//4 24//4
f 20//5 16//5 14//5 18//5
f 22//6 23//6 24//6 21//6
f 15//2 19//2 23//2 22//2
f 13//1 15//1 22//1 21//1
f 19//3 17//3 24//3 23//3
