# Blender 4.2.1 LTS
# www.blender.org
o Куб.19
v 20.386448 14.262115 11.906361
v 21.886448 14.262115 11.906361
v 20.386448 14.262110 -21.693638
v 21.886448 14.262110 -21.693638
v 20.386448 7.262111 -21.693634
v 21.886448 7.262111 -21.693634
v 20.386448 7.262118 11.906361
v 21.886448 7.262118 11.906361
v 20.386448 23.262110 -20.193642
v -25.613552 23.262110 -20.193642
v 20.386448 21.262110 -20.193642
v -25.613552 21.262110 -20.193642
v -25.613552 23.262115 -11.193641
v -25.613552 21.262114 -11.193640
v 20.386448 23.262115 -11.193641
v 20.386448 21.262114 -11.193640
v 20.386448 23.262110 -21.693638
v 20.386448 16.262110 -21.693638
v -25.613552 23.262110 -21.693638
v -25.613552 16.262110 -21.693638
v 20.386448 23.262110 -20.193642
v -25.613552 23.262110 -20.193642
v -25.613552 16.262110 -20.193640
v 20.386448 16.262110 -20.193640
v 20.386448 23.262115 11.906359
v 20.386448 16.262115 11.906361
v -25.613552 23.262115 11.906359
v -25.613552 16.262115 11.906361
v 20.386448 23.262115 10.406359
v -25.613552 23.262115 10.406359
v -25.613552 16.262115 10.406362
v 20.386448 16.262115 10.406362
v 20.386448 5.312109 -21.693634
v 20.386448 -1.687891 -21.693634
v -25.613552 5.312109 -21.693634
v -25.613552 -1.687891 -21.693634
v 20.386448 5.312109 -20.193634
v -25.613552 5.312109 -20.193634
v -25.613552 -1.687891 -20.193634
v 20.386448 -1.687891 -20.193634
v 20.386448 5.312117 11.906363
v 20.386448 -1.687883 11.906365
v -25.613552 5.312117 11.906363
v -25.613552 -1.687883 11.906365
v 20.386448 5.312117 10.406365
v -25.613552 5.312117 10.406365
v -25.613552 -1.687883 10.406365
v 20.386448 -1.687883 10.406365
v 20.386448 14.262110 -21.693638
v 20.386448 7.262111 -21.693634
v -25.613552 14.262110 -21.693638
v -25.613552 7.262111 -21.693634
v 20.386448 14.262110 -20.193640
v -25.613552 14.262110 -20.193640
v -25.613552 7.262112 -20.193636
v 20.386448 7.262112 -20.193636
v 20.386448 14.262115 11.906361
v 20.386448 7.262118 11.906361
v -25.613552 14.262115 11.906361
v -25.613552 7.262118 11.906361
v 20.386448 14.262115 10.406362
v -25.613552 14.262115 10.406362
v -25.613552 7.262117 10.406362
v 20.386448 7.262117 10.406362
v -27.113552 23.262115 11.906359
v -25.613552 23.262115 11.906359
v -27.113552 23.262110 -21.693638
v -25.613552 23.262110 -21.693638
v -27.113552 16.262110 -21.693638
v -25.613552 16.262110 -21.693638
v -27.113552 16.262115 11.906361
v -25.613552 16.262115 11.906361
v -27.113552 5.312117 11.906363
v -25.613552 5.312117 11.906363
v -27.113552 5.312109 -21.693634
v -25.613552 5.312109 -21.693634
v -27.113552 -1.687891 -21.693634
v -25.613552 -1.687891 -21.693634
v -27.113552 -1.687883 11.906365
v -25.613552 -1.687883 11.906365
v -27.113552 14.262115 11.906361
v -25.613552 14.262115 11.906361
v -27.113552 14.262110 -21.693638
v -25.613552 14.262110 -21.693638
v -27.113552 7.262111 -21.693634
v -25.613552 7.262111 -21.693634
v -27.113552 7.262118 11.906361
v -25.613552 7.262118 11.906361
v 20.386448 23.262115 -9.893641
v 20.386448 21.262114 -9.893641
v -25.613552 23.262115 -9.893641
v -25.613552 21.262114 -9.893641
v -25.613552 23.262115 0.106359
v -25.613552 21.262115 0.106360
v 20.386448 23.262115 0.106359
v 20.386448 21.262115 0.106360
v 20.386448 5.312117 11.906363
v 21.886448 5.312117 11.906363
v 20.386448 5.312109 -21.693634
v 21.886448 5.312109 -21.693634
v 20.386448 -1.687891 -21.693634
v 21.886448 -1.687891 -21.693634
v 20.386448 -1.687883 11.906365
v 21.886448 -1.687883 11.906365
v 20.386448 23.262115 11.906359
v 21.886448 23.262115 11.906359
v 20.386448 23.262110 -21.693638
v 21.886448 23.262110 -21.693638
v 20.386448 16.262110 -21.693638
v 21.886448 16.262110 -21.693638
v 20.386448 16.262115 11.906361
v 21.886448 16.262115 11.906361
v 20.386448 23.262115 10.406359
v -25.613552 23.262115 10.406359
v 20.386448 23.262115 1.406359
v 20.386448 21.262115 1.406361
v -25.613552 23.262115 1.406359
v -25.613552 21.262115 1.406361
v -25.613552 21.262115 10.406359
v 20.386448 21.262115 10.406359
v 20.386448 23.262115 10.406359
v 20.386448 23.262110 -20.193642
v 17.386448 23.262110 -20.193642
v 17.386448 23.262115 10.406359
v 20.386448 20.262110 -20.193642
v 17.386448 20.262110 -20.193642
v 17.386448 20.262115 10.406359
v 20.386448 20.262115 10.406359
v -25.613552 23.262115 10.406359
v -25.613552 23.262110 -20.193642
v -22.613552 23.262115 10.406359
v -22.613552 23.262110 -20.193642
v -22.613552 20.262110 -20.193642
v -25.613552 20.262110 -20.193642
v -25.613552 20.262115 10.406359
v -22.613552 20.262115 10.406359
v 20.386448 23.262115 10.406359
v 20.386448 -1.737883 7.406365
v 20.386448 -1.737883 10.406365
v 17.386448 -1.737883 7.406365
v 17.386448 -1.737883 10.406365
v 17.386448 23.262115 7.406359
v 17.386448 23.262115 10.406359
v 20.386448 23.262115 7.406359
v 20.386448 23.262110 -20.193642
v 20.386448 -1.737890 -20.193634
v 20.386448 -1.737888 -17.193634
v 17.386448 -1.737890 -20.193634
v 17.386448 -1.737888 -17.193634
v 17.386448 23.262110 -20.193642
v 17.386448 23.262110 -17.193642
v 20.386448 23.262110 -17.193642
v -25.613552 23.262110 -20.193642
v -22.613552 -1.737890 -20.193634
v -22.613552 -1.737888 -17.193634
v -25.613552 -1.737890 -20.193634
v -25.613552 -1.737888 -17.193634
v -25.613552 23.262110 -17.193642
v -22.613552 23.262110 -20.193642
v -22.613552 23.262110 -17.193642
v -25.613552 23.262115 10.406359
v -22.613552 -1.737883 7.406365
v -22.613552 -1.737883 10.406365
v -25.613552 -1.737883 7.406365
v -25.613552 -1.737883 10.406365
v -25.613552 23.262115 7.406359
v -22.613552 23.262115 7.406359
v -22.613552 23.262115 10.406359
vn -0.0000 1.0000 -0.0000
vn -0.0000 -0.0000 -1.0000
vn -0.0000 -1.0000 -0.0000
vn -0.0000 -0.0000 1.0000
vn 1.0000 -0.0000 -0.0000
vn -1.0000 -0.0000 -0.0000
s 0
f 3//1 1//1 2//1 4//1
f 5//2 3//2 4//2 6//2
f 7//3 5//3 6//3 8//3
f 1//4 7//4 8//4 2//4
f 4//5 2//5 8//5 6//5
f 5//6 7//6 1//6 3//6
f 10//2 9//2 11//2 12//2
f 13//6 10//6 12//6 14//6
f 15//4 13//4 14//4 16//4
f 9//5 15//5 16//5 11//5
f 12//3 11//3 16//3 14//3
f 13//1 15//1 9//1 10//1
f 22//1 21//1 17//1 19//1
f 23//6 22//6 19//6 20//6
f 24//3 23//3 20//3 18//3
f 21//5 24//5 18//5 17//5
f 19//2 17//2 18//2 20//2
f 23//4 24//4 21//4 22//4
f 27//1 25//1 29//1 30//1
f 28//6 27//6 30//6 31//6
f 26//3 28//3 31//3 32//3
f 25//5 26//5 32//5 29//5
f 30//2 29//2 32//2 31//2
f 28//4 26//4 25//4 27//4
f 38//1 37//1 33//1 35//1
f 39//6 38//6 35//6 36//6
f 40//3 39//3 36//3 34//3
f 37//5 40//5 34//5 33//5
f 35//2 33//2 34//2 36//2
f 39//4 40//4 37//4 38//4
f 43//1 41//1 45//1 46//1
f 44//6 43//6 46//6 47//6
f 42//3 44//3 47//3 48//3
f 41//5 42//5 48//5 45//5
f 46//2 45//2 48//2 47//2
f 44//4 42//4 41//4 43//4
f 54//1 53//1 49//1 51//1
f 55//6 54//6 51//6 52//6
f 56//3 55//3 52//3 50//3
f 53//5 56//5 50//5 49//5
f 51//2 49//2 50//2 52//2
f 55//4 56//4 53//4 54//4
f 59//1 57//1 61//1 62//1
f 60//6 59//6 62//6 63//6
f 58//3 60//3 63//3 64//3
f 57//5 58//5 64//5 61//5
f 62//2 61//2 64//2 63//2
f 60//4 58//4 57//4 59//4
f 67//1 65//1 66//1 68//1
f 69//2 67//2 68//2 70//2
f 71//3 69//3 70//3 72//3
f 65//4 71//4 72//4 66//4
f 68//5 66//5 72//5 70//5
f 69//6 71//6 65//6 67//6
f 75//1 73//1 74//1 76//1
f 77//2 75//2 76//2 78//2
f 79//3 77//3 78//3 80//3
f 73//4 79//4 80//4 74//4
f 76//5 74//5 80//5 78//5
f 77//6 79//6 73//6 75//6
f 83//1 81//1 82//1 84//1
f 85//2 83//2 84//2 86//2
f 87//3 85//3 86//3 88//3
f 81//4 87//4 88//4 82//4
f 84//5 82//5 88//5 86//5
f 85//6 87//6 81//6 83//6
f 91//2 89//2 90//2 92//2
f 93//6 91//6 92//6 94//6
f 95//4 93//4 94//4 96//4
f 89//5 95//5 96//5 90//5
f 92//3 90//3 96//3 94//3
f 93//1 95//1 89//1 91//1
f 99//1 97//1 98//1 100//1
f 101//2 99//2 100//2 102//2
f 103//3 101//3 102//3 104//3
f 97//4 103//4 104//4 98//4
f 100//5 98//5 104//5 102//5
f 101//6 103//6 97//6 99//6
f 107//1 105//1 106//1 108//1
f 109//2 107//2 108//2 110//2
f 111//3 109//3 110//3 112//3
f 105//4 111//4 112//4 106//4
f 108//5 106//5 112//5 110//5
f 109//6 111//6 105//6 107//6
f 117//2 115//2 116//2 118//2
f 114//6 117//6 118//6 119//6
f 113//4 114//4 119//4 120//4
f 115//5 113//5 120//5 116//5
f 118//3 116//3 120//3 119//3
f 114//1 113//1 115//1 117//1
f 123//2 122//2 125//2 126//2
f 124//6 123//6 126//6 127//6
f 121//4 124//4 127//4 128//4
f 122//5 121//5 128//5 125//5
f 126//3 125//3 128//3 127//3
f 124//1 121//1 122//1 123//1
f 130//2 132//2 133//2 134//2
f 129//6 130//6 134//6 135//6
f 131//4 129//4 135//4 136//4
f 132//5 131//5 136//5 133//5
f 134//3 133//3 136//3 135//3
f 129//1 131//1 132//1 130//1
f 140//3 138//3 139//3 141//3
f 142//6 140//6 141//6 143//6
f 144//1 142//1 143//1 137//1
f 138//5 144//5 137//5 139//5
f 141//4 139//4 137//4 143//4
f 142//2 144//2 138//2 140//2
f 148//3 146//3 147//3 149//3
f 150//6 148//6 149//6 151//6
f 145//1 150//1 151//1 152//1
f 146//5 145//5 152//5 147//5
f 149//4 147//4 152//4 151//4
f 150//2 145//2 146//2 148//2
f 156//3 154//3 155//3 157//3
f 153//6 156//6 157//6 158//6
f 159//1 153//1 158//1 160//1
f 154//5 159//5 160//5 155//5
f 157//4 155//4 160//4 158//4
f 153//2 159//2 154//2 156//2
f 164//3 162//3 163//3 165//3
f 166//6 164//6 165//6 161//6
f 167//1 166//1 161//1 168//1
f 162//5 167//5 168//5 163//5
f 165//4 163//4 168//4 161//4
f 166//2 167//2 162//2 164//2
