# Blender 4.2.1 LTS
# www.blender.org
o Cube
v -15.153108 -1.000000 1.000000
v -15.153108 1.000000 1.000000
v -15.153108 -1.000000 -1.000000
v -15.153108 1.000000 -1.000000
v 15.153108 -1.000000 1.000000
v 15.153108 1.000000 1.000000
v 15.153108 -1.000000 -1.000000
v 15.153108 1.000000 -1.000000
v -15.153108 -1.000004 -20.657036
v -15.153108 0.999996 -20.657036
v 15.153108 -1.000004 -20.657036
v 15.153108 0.999996 -20.657036
v -15.153108 -38.938583 1.000006
v -15.153108 -38.938583 -0.999994
v 15.153108 -38.938583 -0.999994
v 15.153108 -38.938583 1.000006
v -15.153108 -38.938583 -20.657028
v 15.153108 -38.938583 -20.657028
vn -1.0000 -0.0000 -0.0000
vn 1.0000 -0.0000 -0.0000
vn -0.0000 -0.0000 1.0000
vn -0.0000 1.0000 -0.0000
vn -0.0000 -0.0000 -1.0000
vn -0.0000 -1.0000 -0.0000
s 0
f 1//1 2//1 4//1 3//1
f 8//2 7//2 11//2 12//2
f 7//2 8//2 6//2 5//2
f 5//3 6//3 2//3 1//3
f 1//1 3//1 14//1 13//1
f 8//4 4//4 2//4 6//4
f 9//5 10//5 12//5 11//5
f 9//5 11//5 18//5 17//5
f 4//4 8//4 12//4 10//4
f 3//1 4//1 10//1 9//1
f 14//6 15//6 16//6 13//6
f 15//6 14//6 17//6 18//6
f 3//1 9//1 17//1 14//1
f 7//2 5//2 16//2 15//2
f 11//2 7//2 15//2 18//2
f 5//3 1//3 13//3 16//3
